<?xml version="1.0" encoding="UTF-8"?>
<svg xmlns="http://www.w3.org/2000/svg" xmlns:xlink="http://www.w3.org/1999/xlink" width="450px" height="300px" viewBox="0 0 450 300" version="1.1">
<g id="surface1">
<path style=" stroke:none;fill-rule:nonzero;fill:rgb(0%,0%,0%);fill-opacity:1;" d="M 270 56.25 L 270 187.5 L 45 187.5 L 45 56.25 Z M 45 18.75 C 20.179688 18.75 0 35.566406 0 56.25 L 0 187.5 C 0 208.183594 20.179688 225 45 225 L 127.476562 225 L 119.953125 243.75 L 67.5 243.75 C 55.054688 243.75 45 252.128906 45 262.5 C 45 272.871094 55.054688 281.25 67.5 281.25 L 247.5 281.25 C 259.945312 281.25 270 272.871094 270 262.5 C 270 252.128906 259.945312 243.75 247.5 243.75 L 194.976562 243.75 L 187.453125 225 L 270 225 C 294.820312 225 315 208.183594 315 187.5 L 315 56.25 C 315 35.566406 294.820312 18.75 270 18.75 Z M 371.25 18.75 C 352.617188 18.75 337.5 31.347656 337.5 46.875 L 337.5 253.125 C 337.5 268.652344 352.617188 281.25 371.25 281.25 L 416.25 281.25 C 434.882812 281.25 450 268.652344 450 253.125 L 450 46.875 C 450 31.347656 434.882812 18.75 416.25 18.75 Z M 382.5 56.25 L 405 56.25 C 411.1875 56.25 416.25 60.46875 416.25 65.625 C 416.25 70.78125 411.1875 75 405 75 L 382.5 75 C 376.3125 75 371.25 70.78125 371.25 65.625 C 371.25 60.46875 376.3125 56.25 382.5 56.25 Z M 371.25 103.125 C 371.25 97.96875 376.3125 93.75 382.5 93.75 L 405 93.75 C 411.1875 93.75 416.25 97.96875 416.25 103.125 C 416.25 108.28125 411.1875 112.5 405 112.5 L 382.5 112.5 C 376.3125 112.5 371.25 108.28125 371.25 103.125 Z M 393.75 196.875 C 406.175781 196.875 416.25 205.269531 416.25 215.625 C 416.25 225.980469 406.175781 234.375 393.75 234.375 C 381.324219 234.375 371.25 225.980469 371.25 215.625 C 371.25 205.269531 381.324219 196.875 393.75 196.875 Z M 393.75 196.875 "/>
</g>
</svg>
